# Blender v2.93.0 OBJ File: 'mcg_workstation.blend'
# www.blender.org
mtllib steve.mtl
o Steve_Cube.001
v 4.000000 0.000000 2.000000
v 4.000000 12.000000 2.000000
v 4.000000 0.000000 -2.000000
v 4.000000 12.000000 -2.000000
v 4.000000 12.000000 2.000000
v 4.000000 24.000000 2.000000
v 4.000000 12.000000 -2.000000
v 4.000000 24.000000 -2.000000
v 8.000000 12.000000 2.000000
v 8.000000 24.000000 2.000000
v 8.000000 12.000000 -2.000000
v 8.000000 24.000000 -2.000000
v 4.000000 12.000000 2.000000
v 4.000000 24.000000 2.000000
v 4.000000 12.000000 -2.000000
v 4.000000 24.000000 -2.000000
v 4.000000 24.000000 4.000000
v 4.000000 32.000000 4.000000
v 4.000000 24.000000 -4.000000
v 4.000000 32.000000 -4.000000
v 0.000000 0.000000 2.000000
v 0.000000 12.000000 2.000000
v 0.000000 0.000000 -2.000000
v 0.000000 12.000000 -2.000000
v -4.000000 0.000000 2.000000
v -4.000000 12.000000 2.000000
v -4.000000 0.000000 -2.000000
v -4.000000 12.000000 -2.000000
v -4.000000 12.000000 2.000000
v -4.000000 24.000000 2.000000
v -4.000000 12.000000 -2.000000
v -4.000000 24.000000 -2.000000
v -8.000000 12.000000 2.000000
v -8.000000 24.000000 2.000000
v -8.000000 12.000000 -2.000000
v -8.000000 24.000000 -2.000000
v -4.000000 12.000000 2.000000
v -4.000000 24.000000 2.000000
v -4.000000 12.000000 -2.000000
v -4.000000 24.000000 -2.000000
v -4.000000 24.000000 4.000000
v -4.000000 32.000000 4.000000
v -4.000000 24.000000 -4.000000
v -4.000000 32.000000 -4.000000
v 0.000000 0.000000 -2.000000
v 0.000000 0.000000 2.000000
v 0.000000 12.000000 2.000000
v 0.000000 12.000000 -2.000000
v 4.100000 -0.300000 2.100000
v 4.100000 12.299999 2.100000
v 4.100000 -0.300000 -2.100000
v 4.100000 12.299999 -2.100000
v 3.900000 11.700001 2.100000
v 3.900000 24.299999 2.100000
v 3.900000 11.700001 -2.100000
v 3.900000 24.299999 -2.100000
v 8.100000 11.700001 2.100000
v 8.100000 24.299999 2.100000
v 8.100000 11.700001 -2.100000
v 8.100000 24.299999 -2.100000
v 4.200000 11.700001 2.100000
v 4.200000 24.299999 2.100000
v 4.200000 11.700001 -2.100000
v 4.200000 24.299999 -2.100000
v 4.200000 23.799999 4.200000
v 4.200000 32.200001 4.200000
v 4.200000 23.799999 -4.200000
v 4.200000 32.200001 -4.200000
v 0.100000 -0.300000 2.100000
v 0.100000 12.299999 2.100000
v 0.100000 -0.300000 -2.100000
v 0.100000 12.299999 -2.100000
v -4.100000 -0.300000 2.100000
v -4.100000 12.299999 2.100000
v -4.100000 -0.300000 -2.100000
v -4.100000 12.299999 -2.100000
v -3.900000 11.700001 2.100000
v -3.900000 24.299999 2.100000
v -3.900000 11.700001 -2.100000
v -3.900000 24.299999 -2.100000
v -8.100000 11.700001 2.100000
v -8.100000 24.299999 2.100000
v -8.100000 11.700001 -2.100000
v -8.100000 24.299999 -2.100000
v -4.200000 11.700001 2.100000
v -4.200000 24.299999 2.100000
v -4.200000 11.700001 -2.100000
v -4.200000 24.299999 -2.100000
v -4.200000 23.799999 4.200000
v -4.200000 32.200001 4.200000
v -4.200000 23.799999 -4.200000
v -4.200000 32.200001 -4.200000
v -0.100000 -0.300000 -2.100000
v -0.100000 -0.300000 2.100000
v -0.100000 12.299999 2.100000
v -0.100000 12.299999 -2.100000
vt 0.500000 0.000000
vt 0.500000 0.187500
vt 0.437500 0.187500
vt 0.437500 0.000000
vt 0.375000 0.187500
vt 0.375000 0.000000
vt 0.312500 0.187500
vt 0.312500 0.000000
vt 0.375000 0.187500
vt 0.437500 0.187500
vt 0.437500 0.250000
vt 0.375000 0.250000
vt 0.375000 0.250000
vt 0.312500 0.250000
vt 0.562500 -0.000000
vt 0.562500 0.187500
vt 0.500000 0.187500
vt 0.500000 -0.000000
vt 0.750000 -0.000000
vt 0.750000 0.187500
vt 0.687500 0.187500
vt 0.687500 -0.000000
vt 0.625000 0.187500
vt 0.625000 -0.000000
vt 0.625000 0.187500
vt 0.687500 0.187500
vt 0.687500 0.250000
vt 0.625000 0.250000
vt 0.625000 0.250000
vt 0.562500 0.250000
vt 0.375000 0.875000
vt 0.250000 0.875000
vt 0.250000 1.000000
vt 0.375000 1.000000
vt 0.500000 0.500000
vt 0.500000 0.687500
vt 0.437500 0.687500
vt 0.437500 0.500000
vt 0.312500 0.750000
vt 0.312500 0.687500
vt 0.437500 0.750000
vt 0.312500 0.500000
vt 0.625000 0.500000
vt 0.625000 0.687500
vt 0.375000 0.750000
vt 0.375000 0.875000
vt 0.250000 0.875000
vt 0.250000 0.750000
vt 0.125000 1.000000
vt 0.125000 0.875000
vt 0.250000 1.000000
vt 0.125000 0.750000
vt 0.500000 0.750000
vt 0.500000 0.875000
vt 0.250000 0.000000
vt 0.250000 0.187500
vt 0.187500 0.500000
vt 0.250000 0.500000
vt 0.250000 0.687500
vt 0.187500 0.687500
vt 0.000000 0.500000
vt 0.062500 0.500000
vt 0.062500 0.687500
vt 0.000000 0.687500
vt 0.125000 0.500000
vt 0.125000 0.687500
vt 0.187500 0.687500
vt 0.187500 0.750000
vt 0.125000 0.750000
vt 0.125000 0.687500
vt 0.062500 0.750000
vt 0.125000 0.750000
vt 0.750000 0.500000
vt 0.812500 0.500000
vt 0.812500 0.687500
vt 0.750000 0.687500
vt 0.875000 0.500000
vt 0.875000 0.687500
vt 0.625000 0.500000
vt 0.687500 0.500000
vt 0.687500 0.687500
vt 0.625000 0.687500
vt 0.812500 0.687500
vt 0.812500 0.750000
vt 0.750000 0.750000
vt 0.750000 0.687500
vt 0.687500 0.750000
vt 0.750000 0.750000
vt 0.250000 0.500000
vt 0.250000 0.687500
vt 0.000000 0.750000
vt 0.000000 0.875000
vt 0.562500 0.687500
vt 0.437500 0.687500
vt 0.437500 0.750000
vt 0.562500 0.750000
vt 0.250000 0.000000
vt 0.250000 0.187500
vt 0.187500 0.187500
vt 0.187500 0.000000
vt 0.125000 0.187500
vt 0.125000 0.000000
vt 0.062500 0.187500
vt 0.062500 0.000000
vt 0.125000 0.187500
vt 0.187500 0.187500
vt 0.187500 0.250000
vt 0.125000 0.250000
vt 0.125000 0.250000
vt 0.062500 0.250000
vt 0.812500 -0.000000
vt 0.812500 0.187500
vt 0.750000 0.187500
vt 0.750000 -0.000000
vt 1.000000 -0.000000
vt 1.000000 0.187500
vt 0.937500 0.187500
vt 0.937500 -0.000000
vt 0.875000 0.187500
vt 0.875000 -0.000000
vt 0.875000 0.187500
vt 0.937500 0.187500
vt 0.937500 0.250000
vt 0.875000 0.250000
vt 0.875000 0.250000
vt 0.812500 0.250000
vt 0.875000 0.875000
vt 0.750000 0.875000
vt 0.750000 1.000000
vt 0.875000 1.000000
vt 0.500000 0.250000
vt 0.500000 0.437500
vt 0.437500 0.437500
vt 0.437500 0.250000
vt 0.312500 0.500000
vt 0.312500 0.437500
vt 0.437500 0.500000
vt 0.312500 0.250000
vt 0.625000 0.250000
vt 0.625000 0.437500
vt 0.875000 0.750000
vt 0.875000 0.875000
vt 0.750000 0.875000
vt 0.750000 0.750000
vt 0.625000 1.000000
vt 0.625000 0.875000
vt 0.750000 1.000000
vt 0.625000 0.750000
vt 1.000000 0.750000
vt 1.000000 0.875000
vt 0.000000 0.000000
vt 0.000000 0.187500
vt 0.187500 0.250000
vt 0.250000 0.250000
vt 0.250000 0.437500
vt 0.187500 0.437500
vt 0.000000 0.250000
vt 0.062500 0.250000
vt 0.062500 0.437500
vt 0.000000 0.437500
vt 0.125000 0.250000
vt 0.125000 0.437500
vt 0.187500 0.437500
vt 0.187500 0.500000
vt 0.125000 0.500000
vt 0.125000 0.437500
vt 0.062500 0.500000
vt 0.125000 0.500000
vt 0.750000 0.250000
vt 0.812500 0.250000
vt 0.812500 0.437500
vt 0.750000 0.437500
vt 0.875000 0.250000
vt 0.875000 0.437500
vt 0.625000 0.250000
vt 0.687500 0.250000
vt 0.687500 0.437500
vt 0.625000 0.437500
vt 0.812500 0.437500
vt 0.812500 0.500000
vt 0.750000 0.500000
vt 0.750000 0.437500
vt 0.687500 0.500000
vt 0.750000 0.500000
vt 0.250000 0.250000
vt 0.250000 0.437500
vt 0.500000 0.750000
vt 0.500000 0.875000
vt 0.562500 0.437500
vt 0.437500 0.437500
vt 0.437500 0.500000
vt 0.562500 0.500000
vn 0.0000 0.0000 -1.0000
vn 1.0000 0.0000 0.0000
vn 0.0000 0.0000 1.0000
vn 0.0000 -1.0000 0.0000
vn 0.0000 1.0000 0.0000
vn -1.0000 0.0000 0.0000
usemtl Steve
s off
f 45/1/1 48/2/1 4/3/1 3/4/1
f 3/4/2 4/3/2 2/5/2 1/6/2
f 1/6/3 2/5/3 47/7/3 46/8/3
f 45/9/4 3/10/4 1/11/4 46/12/4
f 4/13/5 48/14/5 47/7/5 2/5/5
f 5/15/6 6/16/6 8/17/6 7/18/6
f 7/19/1 8/20/1 12/21/1 11/22/1
f 11/22/2 12/21/2 10/23/2 9/24/2
f 9/24/3 10/23/3 6/16/3 5/15/3
f 7/25/4 11/26/4 9/27/4 5/28/4
f 12/29/5 8/30/5 6/16/5 10/23/5
f 17/31/4 41/32/4 43/33/4 19/34/4
f 15/35/2 16/36/2 14/37/2 13/38/2
f 40/39/5 38/40/5 14/37/5 16/41/5
f 37/42/3 13/38/3 14/37/3 38/40/3
f 15/35/1 39/43/1 40/44/1 16/36/1
f 19/45/2 20/46/2 18/47/2 17/48/2
f 44/49/5 42/50/5 18/47/5 20/51/5
f 41/52/3 17/48/3 18/47/3 42/50/3
f 19/45/1 43/53/1 44/54/1 20/46/1
f 45/55/6 46/8/6 47/7/6 48/56/6
f 23/57/1 27/58/1 28/59/1 24/60/1
f 27/61/6 25/62/6 26/63/6 28/64/6
f 25/62/3 21/65/3 22/66/3 26/63/3
f 23/67/4 21/68/4 25/69/4 27/70/4
f 28/71/5 26/63/5 22/66/5 24/72/5
f 29/73/2 31/74/2 32/75/2 30/76/2
f 31/74/1 35/77/1 36/78/1 32/75/1
f 35/79/6 33/80/6 34/81/6 36/82/6
f 33/80/3 29/73/3 30/76/3 34/81/3
f 31/83/4 29/84/4 33/85/4 35/86/4
f 36/87/5 34/81/5 30/76/5 32/88/5
f 39/89/6 37/42/6 38/40/6 40/90/6
f 43/91/6 41/52/6 42/50/6 44/92/6
f 13/93/4 37/94/4 39/95/4 15/96/4
f 23/57/2 24/60/2 22/66/2 21/65/2
f 93/97/1 96/98/1 52/99/1 51/100/1
f 51/100/2 52/99/2 50/101/2 49/102/2
f 49/102/3 50/101/3 95/103/3 94/104/3
f 93/105/4 51/106/4 49/107/4 94/108/4
f 52/109/5 96/110/5 95/103/5 50/101/5
f 53/111/6 54/112/6 56/113/6 55/114/6
f 55/115/1 56/116/1 60/117/1 59/118/1
f 59/118/2 60/117/2 58/119/2 57/120/2
f 57/120/3 58/119/3 54/112/3 53/111/3
f 55/121/4 59/122/4 57/123/4 53/124/4
f 60/125/5 56/126/5 54/112/5 58/119/5
f 65/127/4 89/128/4 91/129/4 67/130/4
f 63/131/2 64/132/2 62/133/2 61/134/2
f 88/135/5 86/136/5 62/133/5 64/137/5
f 85/138/3 61/134/3 62/133/3 86/136/3
f 63/131/1 87/139/1 88/140/1 64/132/1
f 67/141/2 68/142/2 66/143/2 65/144/2
f 92/145/5 90/146/5 66/143/5 68/147/5
f 89/148/3 65/144/3 66/143/3 90/146/3
f 67/141/1 91/149/1 92/150/1 68/142/1
f 93/151/6 94/104/6 95/103/6 96/152/6
f 71/153/1 75/154/1 76/155/1 72/156/1
f 75/157/6 73/158/6 74/159/6 76/160/6
f 73/158/3 69/161/3 70/162/3 74/159/3
f 71/163/4 69/164/4 73/165/4 75/166/4
f 76/167/5 74/159/5 70/162/5 72/168/5
f 77/169/2 79/170/2 80/171/2 78/172/2
f 79/170/1 83/173/1 84/174/1 80/171/1
f 83/175/6 81/176/6 82/177/6 84/178/6
f 81/176/3 77/169/3 78/172/3 82/177/3
f 79/179/4 77/180/4 81/181/4 83/182/4
f 84/183/5 82/177/5 78/172/5 80/184/5
f 87/185/6 85/138/6 86/136/6 88/186/6
f 91/187/6 89/148/6 90/146/6 92/188/6
f 61/189/4 85/190/4 87/191/4 63/192/4
f 71/153/2 72/156/2 70/162/2 69/161/2
