# Blender v2.93.0 OBJ File: 'mcg_workstation.blend'
# www.blender.org
mtllib cloud3.mtl
o Cloud3_Plane.002
v -34.051018 1.000000 14.775510
v 65.948982 1.000000 14.775510
v -34.051018 1.000000 -15.224490
v 65.948982 1.000000 -15.224490
v 5.948980 1.000000 14.775510
v 5.948980 1.000000 -15.224490
v -34.051018 1.000000 34.775509
v 5.948980 1.000000 34.775509
v -54.051018 1.000000 14.775510
v -54.051018 1.000000 -15.224490
v -54.051018 1.000000 34.775509
v -34.051018 1.000000 44.775509
v -54.051018 1.000000 44.775509
v -74.051018 1.000000 14.775510
v -74.051018 1.000000 34.775509
v -4.051020 1.000000 -15.224490
v -34.051018 1.000000 -55.224491
v 5.948980 1.000000 -55.224491
v 55.948982 1.000000 14.775510
v 55.948982 1.000000 -15.224490
v 25.948980 1.000000 -15.224490
v 25.948980 1.000000 14.775510
v 55.948982 1.000000 -45.224491
v 25.948980 1.000000 -45.224491
v 25.948980 1.000000 -35.224491
v 55.948982 1.000000 -35.224491
v 65.948982 1.000000 -45.224491
v 65.948982 1.000000 -35.224491
v -4.051020 1.000000 14.775510
v -4.051020 1.000000 34.775509
v -4.051020 1.000000 -55.224491
v 5.948980 1.000000 44.775509
v -4.051020 1.000000 44.775509
v -34.051018 0.000000 14.775510
v 65.948982 0.000000 14.775510
v -34.051018 0.000000 -15.224490
v 65.948982 0.000000 -15.224490
v 5.948980 0.000000 14.775510
v 5.948980 0.000000 -15.224490
v -34.051018 0.000000 34.775509
v 5.948980 0.000000 34.775509
v -54.051018 0.000000 14.775510
v -54.051018 0.000000 -15.224490
v -54.051018 0.000000 34.775509
v -34.051018 0.000000 44.775509
v -54.051018 0.000000 44.775509
v -74.051018 0.000000 14.775510
v -74.051018 0.000000 34.775509
v -4.051020 0.000000 -15.224490
v -34.051018 0.000000 -55.224491
v 5.948980 0.000000 -55.224491
v 55.948982 0.000000 14.775510
v 55.948982 0.000000 -15.224490
v 25.948980 0.000000 -15.224490
v 25.948980 0.000000 14.775510
v 55.948982 0.000000 -45.224491
v 25.948980 0.000000 -45.224491
v 25.948980 0.000000 -35.224491
v 55.948982 0.000000 -35.224491
v 65.948982 0.000000 -45.224491
v 65.948982 0.000000 -35.224491
v -4.051020 0.000000 14.775510
v -4.051020 0.000000 34.775509
v -4.051020 0.000000 -55.224491
v 5.948980 0.000000 44.775509
v -4.051020 0.000000 44.775509
vt 0.820000 0.000000
vt 1.000000 0.000000
vt 1.000000 1.000000
vt 0.820000 1.000000
vt 0.320000 0.000000
vt 0.400000 0.000000
vt 0.400000 1.000000
vt 0.320000 1.000000
vt 0.000000 0.000000
vt 0.000000 0.000000
vt 0.320000 0.000000
vt 0.000000 0.000000
vt 0.000000 0.000000
vt 0.000000 1.000000
vt 0.000000 1.000000
vt 0.000000 0.000000
vt 0.000000 0.000000
vt 0.320000 1.000000
vt 0.000000 1.000000
vt 0.000000 0.000000
vt 0.000000 0.000000
vt 0.400000 1.000000
vt 0.547000 0.000000
vt 0.547000 1.000000
vt 0.547000 1.000000
vt 0.820000 1.000000
vt 0.820000 1.000000
vt 0.547000 1.000000
vt 0.820000 1.000000
vt 0.820000 1.000000
vt 0.400000 0.000000
vt 0.320000 0.000000
vt 0.400000 0.000000
vt 0.820000 0.000000
vt 0.820000 1.000000
vt 1.000000 1.000000
vt 1.000000 0.000000
vt 0.320000 0.000000
vt 0.320000 1.000000
vt 0.400000 1.000000
vt 0.400000 0.000000
vt 0.320000 0.000000
vt 0.000000 0.000000
vt 0.000000 0.000000
vt 0.000000 0.000000
vt 0.000000 0.000000
vt 0.000000 1.000000
vt 0.000000 1.000000
vt 0.000000 0.000000
vt 0.000000 0.000000
vt 0.000000 1.000000
vt 0.320000 1.000000
vt 0.000000 0.000000
vt 0.000000 0.000000
vt 0.400000 1.000000
vt 0.547000 0.000000
vt 0.547000 1.000000
vt 0.547000 1.000000
vt 0.547000 1.000000
vt 0.820000 1.000000
vt 0.820000 1.000000
vt 0.820000 1.000000
vt 0.820000 1.000000
vt 0.400000 0.000000
vt 0.400000 0.000000
vt 0.320000 0.000000
vn 0.0000 1.0000 0.0000
vn 0.0000 -1.0000 0.0000
vn 0.0000 0.0000 1.0000
vn 1.0000 0.0000 0.0000
vn 0.0000 0.0000 -1.0000
vn -1.0000 0.0000 0.0000
usemtl Cloud
s off
f 19/1/1 2/2/1 4/3/1 20/4/1
f 29/5/1 5/6/1 6/7/1 16/8/1
f 29/5/1 1/9/1 7/10/1 30/11/1
f 7/10/1 1/9/1 9/12/1 11/13/1
f 1/9/1 3/14/1 10/15/1 9/12/1
f 7/10/1 11/13/1 13/16/1 12/17/1
f 3/14/1 16/8/1 31/18/1 17/19/1
f 11/13/1 9/12/1 14/20/1 15/21/1
f 16/8/1 6/7/1 18/22/1 31/18/1
f 22/23/1 19/1/1 20/4/1 21/24/1
f 5/6/1 22/23/1 21/24/1 6/7/1
f 25/25/1 26/26/1 23/27/1 24/28/1
f 21/24/1 20/4/1 26/26/1 25/25/1
f 23/27/1 26/26/1 28/29/1 27/30/1
f 5/6/1 29/5/1 30/11/1 8/31/1
f 1/9/1 29/5/1 16/8/1 3/14/1
f 8/31/1 30/11/1 33/32/1 32/33/1
f 52/34/2 53/35/2 37/36/2 35/37/2
f 62/38/2 49/39/2 39/40/2 38/41/2
f 62/38/2 63/42/2 40/43/2 34/44/2
f 40/43/2 44/45/2 42/46/2 34/44/2
f 34/44/2 42/46/2 43/47/2 36/48/2
f 40/43/2 45/49/2 46/50/2 44/45/2
f 36/48/2 50/51/2 64/52/2 49/39/2
f 44/45/2 48/53/2 47/54/2 42/46/2
f 49/39/2 64/52/2 51/55/2 39/40/2
f 55/56/2 54/57/2 53/35/2 52/34/2
f 38/41/2 39/40/2 54/57/2 55/56/2
f 58/58/2 57/59/2 56/60/2 59/61/2
f 54/57/2 58/58/2 59/61/2 53/35/2
f 56/60/2 60/62/2 61/63/2 59/61/2
f 38/41/2 41/64/2 63/42/2 62/38/2
f 34/44/2 36/48/2 49/39/2 62/38/2
f 41/64/2 65/65/2 66/66/2 63/42/2
f 2/2/3 19/1/3 52/34/3 35/37/3
f 4/3/4 2/2/4 35/37/4 37/36/4
f 6/7/5 21/24/5 54/57/5 39/40/5
f 5/6/4 8/31/4 41/64/4 38/41/4
f 9/12/6 10/15/6 43/47/6 42/46/6
f 10/15/5 3/14/5 36/48/5 43/47/5
f 12/17/3 13/16/3 46/50/3 45/49/3
f 7/10/4 12/17/4 45/49/4 40/43/4
f 13/16/6 11/13/6 44/45/6 46/50/6
f 15/21/6 14/20/6 47/54/6 48/53/6
f 11/13/3 15/21/3 48/53/3 44/45/3
f 14/20/5 9/12/5 42/46/5 47/54/5
f 17/19/5 31/18/5 64/52/5 50/51/5
f 3/14/6 17/19/6 50/51/6 36/48/6
f 18/22/4 6/7/4 39/40/4 51/55/4
f 19/1/3 22/23/3 55/56/3 52/34/3
f 20/4/5 4/3/5 37/36/5 53/35/5
f 22/23/3 5/6/3 38/41/3 55/56/3
f 24/28/5 23/27/5 56/60/5 57/59/5
f 21/24/6 25/25/6 58/58/6 54/57/6
f 25/25/6 24/28/6 57/59/6 58/58/6
f 26/26/4 20/4/4 53/35/4 59/61/4
f 27/30/4 28/29/4 61/63/4 60/62/4
f 23/27/5 27/30/5 60/62/5 56/60/5
f 28/29/3 26/26/3 59/61/3 61/63/3
f 30/11/3 7/10/3 40/43/3 63/42/3
f 31/18/5 18/22/5 51/55/5 64/52/5
f 32/33/3 33/32/3 66/66/3 65/65/3
f 8/31/4 32/33/4 65/65/4 41/64/4
f 33/32/6 30/11/6 63/42/6 66/66/6
