# Blender v2.93.0 OBJ File: 'mcg_workstation.blend'
# www.blender.org
mtllib cloud1.mtl
o Cloud1_Plane
v -5.017857 1.000000 16.107143
v 14.982143 1.000000 16.107143
v -5.017857 1.000000 -3.892857
v 14.982143 1.000000 -3.892857
v -5.017857 1.000000 -73.892853
v 14.982143 1.000000 -73.892853
v -5.017857 1.000000 -33.892857
v 14.982143 1.000000 -33.892857
v 64.982147 1.000000 16.107143
v 64.982147 1.000000 -3.892857
v 64.982147 1.000000 -33.892857
v -35.017857 1.000000 16.107143
v -35.017857 1.000000 -3.892857
v -35.017857 1.000000 -33.892857
v -5.017857 1.000000 46.107147
v 14.982143 1.000000 46.107147
v -35.017857 1.000000 46.107147
v -55.017853 1.000000 16.107143
v -55.017853 1.000000 46.107147
v -5.017857 0.000000 16.107143
v 14.982143 0.000000 16.107143
v -5.017857 0.000000 -3.892857
v 14.982143 0.000000 -3.892857
v -5.017857 0.000000 -73.892853
v 14.982143 0.000000 -73.892853
v -5.017857 0.000000 -33.892857
v 14.982143 0.000000 -33.892857
v 64.982147 0.000000 16.107143
v 64.982147 0.000000 -3.892857
v 64.982147 0.000000 -33.892857
v -35.017857 0.000000 16.107143
v -35.017857 0.000000 -3.892857
v -35.017857 0.000000 -33.892857
v -5.017857 0.000000 46.107147
v 14.982143 0.000000 46.107147
v -35.017857 0.000000 46.107147
v -55.017853 0.000000 16.107143
v -55.017853 0.000000 46.107147
vt 0.000000 0.000000
vt 1.000000 0.000000
vt 1.000000 1.000000
vt 0.000000 1.000000
vt 0.000000 1.000000
vt 1.000000 1.000000
vt 1.000000 1.000000
vt 0.000000 1.000000
vt 1.000000 1.000000
vt 1.000000 1.000000
vt 1.000000 0.000000
vt 0.000000 1.000000
vt 0.000000 1.000000
vt 0.000000 0.000000
vt 0.000000 0.000000
vt 0.000000 0.000000
vt 1.000000 0.000000
vt 0.000000 0.000000
vt 0.000000 0.000000
vt 0.000000 0.000000
vt 0.000000 1.000000
vt 1.000000 1.000000
vt 1.000000 0.000000
vt 0.000000 1.000000
vt 0.000000 1.000000
vt 1.000000 1.000000
vt 1.000000 1.000000
vt 1.000000 1.000000
vt 1.000000 1.000000
vt 1.000000 0.000000
vt 0.000000 1.000000
vt 0.000000 1.000000
vt 0.000000 0.000000
vt 0.000000 0.000000
vt 0.000000 0.000000
vt 1.000000 0.000000
vt 0.000000 0.000000
vt 0.000000 0.000000
vn 0.0000 1.0000 0.0000
vn 0.0000 -1.0000 0.0000
vn 0.0000 0.0000 -1.0000
vn 1.0000 0.0000 0.0000
vn -1.0000 0.0000 0.0000
vn 0.0000 0.0000 1.0000
usemtl Cloud
s off
f 1/1/1 2/2/1 4/3/1 3/4/1
f 7/5/1 8/6/1 6/7/1 5/8/1
f 3/4/1 4/3/1 8/6/1 7/5/1
f 8/6/1 4/3/1 10/9/1 11/10/1
f 4/3/1 2/2/1 9/11/1 10/9/1
f 3/4/1 7/5/1 14/12/1 13/13/1
f 1/1/1 3/4/1 13/13/1 12/14/1
f 1/1/1 12/14/1 17/15/1 15/16/1
f 2/2/1 1/1/1 15/16/1 16/17/1
f 17/15/1 12/14/1 18/18/1 19/19/1
f 20/20/2 22/21/2 23/22/2 21/23/2
f 26/24/2 24/25/2 25/26/2 27/27/2
f 22/21/2 26/24/2 27/27/2 23/22/2
f 27/27/2 30/28/2 29/29/2 23/22/2
f 23/22/2 29/29/2 28/30/2 21/23/2
f 22/21/2 32/31/2 33/32/2 26/24/2
f 20/20/2 31/33/2 32/31/2 22/21/2
f 20/20/2 34/34/2 36/35/2 31/33/2
f 21/23/2 35/36/2 34/34/2 20/20/2
f 36/35/2 38/37/2 37/38/2 31/33/2
f 5/8/3 6/7/3 25/26/3 24/25/3
f 6/7/4 8/6/4 27/27/4 25/26/4
f 7/5/5 5/8/5 24/25/5 26/24/5
f 10/9/4 9/11/4 28/30/4 29/29/4
f 11/10/4 10/9/4 29/29/4 30/28/4
f 8/6/3 11/10/3 30/28/3 27/27/3
f 9/11/6 2/2/6 21/23/6 28/30/6
f 12/14/5 13/13/5 32/31/5 31/33/5
f 13/13/5 14/12/5 33/32/5 32/31/5
f 14/12/3 7/5/3 26/24/3 33/32/3
f 16/17/6 15/16/6 34/34/6 35/36/6
f 15/16/6 17/15/6 36/35/6 34/34/6
f 2/2/4 16/17/4 35/36/4 21/23/4
f 19/19/5 18/18/5 37/38/5 38/37/5
f 17/15/6 19/19/6 38/37/6 36/35/6
f 18/18/3 12/14/3 31/33/3 37/38/3
