# Blender v2.93.0 OBJ File: 'mcg_workstation.blend'
# www.blender.org
mtllib cloud5.mtl
o Cloud5_Plane.004
v -52.543476 1.000000 34.983696
v 47.456524 1.000000 34.983696
v -52.543476 1.000000 -65.016304
v 47.456524 1.000000 -65.016304
v -2.543478 1.000000 34.983696
v -2.543478 1.000000 -65.016304
v -52.543476 1.000000 -15.016304
v 47.456524 1.000000 -15.016304
v -2.543478 1.000000 -15.016304
v 47.456524 1.000000 74.983696
v -2.543478 1.000000 74.983696
v 87.456520 1.000000 34.983696
v 87.456520 1.000000 -15.016304
v -52.543476 1.000000 9.983696
v 47.456524 1.000000 9.983696
v -2.543478 1.000000 9.983696
v 87.456520 1.000000 9.983696
v 107.456520 1.000000 34.983696
v 107.456520 1.000000 9.983696
v -27.543480 1.000000 -65.016304
v -27.543480 1.000000 34.983696
v -27.543480 1.000000 -15.016304
v -27.543480 1.000000 9.983696
v -52.543476 1.000000 54.983700
v -27.543480 1.000000 54.983700
v -2.543478 1.000000 -85.016304
v -27.543480 1.000000 -85.016304
v -72.543480 1.000000 34.983696
v -72.543480 1.000000 -15.016304
v -72.543480 1.000000 9.983696
v -52.543476 0.000000 34.983696
v 47.456524 0.000000 34.983696
v -52.543476 0.000000 -65.016304
v 47.456524 0.000000 -65.016304
v -2.543478 0.000000 34.983696
v -2.543478 0.000000 -65.016304
v -52.543476 0.000000 -15.016304
v 47.456524 0.000000 -15.016304
v -2.543478 0.000000 -15.016304
v 47.456524 0.000000 74.983696
v -2.543478 0.000000 74.983696
v 87.456520 0.000000 34.983696
v 87.456520 0.000000 -15.016304
v -52.543476 0.000000 9.983696
v 47.456524 0.000000 9.983696
v -2.543478 0.000000 9.983696
v 87.456520 0.000000 9.983696
v 107.456520 0.000000 34.983696
v 107.456520 0.000000 9.983696
v -27.543480 0.000000 -65.016304
v -27.543480 0.000000 34.983696
v -27.543480 0.000000 -15.016304
v -27.543480 0.000000 9.983696
v -52.543476 0.000000 54.983700
v -27.543480 0.000000 54.983700
v -2.543478 0.000000 -85.016304
v -27.543480 0.000000 -85.016304
v -72.543480 0.000000 34.983696
v -72.543480 0.000000 -15.016304
v -72.543480 0.000000 9.983696
vt 0.500000 0.500000
vt 1.000000 0.500000
vt 1.000000 1.000000
vt 0.500000 1.000000
vt 0.250000 0.500000
vt 0.250000 1.000000
vt 0.250000 0.250000
vt 0.500000 0.250000
vt 1.000000 0.250000
vt 1.000000 0.000000
vt 0.500000 0.000000
vt 0.500000 0.000000
vt 1.000000 0.000000
vt 1.000000 0.000000
vt 1.000000 0.250000
vt 1.000000 0.500000
vt 0.250000 0.000000
vt 1.000000 0.000000
vt 1.000000 0.250000
vt 0.000000 0.000000
vt 0.000000 0.250000
vt 0.000000 0.500000
vt 0.000000 1.000000
vt 0.000000 0.000000
vt 0.250000 0.000000
vt 0.500000 1.000000
vt 0.250000 1.000000
vt 0.000000 0.500000
vt 0.000000 0.250000
vt 0.000000 0.000000
vt 0.500000 0.500000
vt 0.500000 1.000000
vt 1.000000 1.000000
vt 1.000000 0.500000
vt 0.250000 0.500000
vt 0.250000 1.000000
vt 0.250000 0.250000
vt 0.500000 0.250000
vt 1.000000 0.250000
vt 1.000000 0.000000
vt 1.000000 0.000000
vt 0.500000 0.000000
vt 0.500000 0.000000
vt 1.000000 0.250000
vt 1.000000 0.000000
vt 1.000000 0.500000
vt 0.250000 0.000000
vt 1.000000 0.250000
vt 1.000000 0.000000
vt 0.000000 0.000000
vt 0.000000 0.250000
vt 0.000000 0.500000
vt 0.000000 1.000000
vt 0.250000 0.000000
vt 0.000000 0.000000
vt 0.250000 1.000000
vt 0.500000 1.000000
vt 0.000000 0.250000
vt 0.000000 0.500000
vt 0.000000 0.000000
vn 0.0000 1.0000 0.0000
vn 0.0000 -1.0000 0.0000
vn 1.0000 0.0000 0.0000
vn 0.0000 0.0000 -1.0000
vn 0.0000 0.0000 1.0000
vn -1.0000 0.0000 0.0000
usemtl Cloud
s off
f 9/1/1 8/2/1 4/3/1 6/4/1
f 22/5/1 9/1/1 6/4/1 20/6/1
f 23/7/1 16/8/1 9/1/1 22/5/1
f 16/8/1 15/9/1 8/2/1 9/1/1
f 2/10/1 5/11/1 11/12/1 10/13/1
f 15/9/1 2/10/1 12/14/1 17/15/1
f 8/2/1 15/9/1 17/15/1 13/16/1
f 5/11/1 2/10/1 15/9/1 16/8/1
f 21/17/1 5/11/1 16/8/1 23/7/1
f 17/15/1 12/14/1 18/18/1 19/19/1
f 1/20/1 21/17/1 23/7/1 14/21/1
f 14/21/1 23/7/1 22/5/1 7/22/1
f 7/22/1 22/5/1 20/6/1 3/23/1
f 21/17/1 1/20/1 24/24/1 25/25/1
f 20/6/1 6/4/1 26/26/1 27/27/1
f 14/21/1 7/22/1 29/28/1 30/29/1
f 1/20/1 14/21/1 30/29/1 28/30/1
f 39/31/2 36/32/2 34/33/2 38/34/2
f 52/35/2 50/36/2 36/32/2 39/31/2
f 53/37/2 52/35/2 39/31/2 46/38/2
f 46/38/2 39/31/2 38/34/2 45/39/2
f 32/40/2 40/41/2 41/42/2 35/43/2
f 45/39/2 47/44/2 42/45/2 32/40/2
f 38/34/2 43/46/2 47/44/2 45/39/2
f 35/43/2 46/38/2 45/39/2 32/40/2
f 51/47/2 53/37/2 46/38/2 35/43/2
f 47/44/2 49/48/2 48/49/2 42/45/2
f 31/50/2 44/51/2 53/37/2 51/47/2
f 44/51/2 37/52/2 52/35/2 53/37/2
f 37/52/2 33/53/2 50/36/2 52/35/2
f 51/47/2 55/54/2 54/55/2 31/50/2
f 50/36/2 57/56/2 56/57/2 36/32/2
f 44/51/2 60/58/2 59/59/2 37/52/2
f 31/50/2 58/60/2 60/58/2 44/51/2
f 4/3/3 8/2/3 38/34/3 34/33/3
f 3/23/4 20/6/4 50/36/4 33/53/4
f 5/11/5 21/17/5 51/47/5 35/43/5
f 6/4/4 4/3/4 34/33/4 36/32/4
f 7/22/6 3/23/6 33/53/6 37/52/6
f 10/13/5 11/12/5 41/42/5 40/41/5
f 2/10/3 10/13/3 40/41/3 32/40/3
f 11/12/6 5/11/6 35/43/6 41/42/6
f 13/16/3 17/15/3 47/44/3 43/46/3
f 8/2/4 13/16/4 43/46/4 38/34/4
f 12/14/5 2/10/5 32/40/5 42/45/5
f 19/19/3 18/18/3 48/49/3 49/48/3
f 17/15/4 19/19/4 49/48/4 47/44/4
f 18/18/5 12/14/5 42/45/5 48/49/5
f 25/25/5 24/24/5 54/55/5 55/54/5
f 21/17/3 25/25/3 55/54/3 51/47/3
f 24/24/6 1/20/6 31/50/6 54/55/6
f 27/27/4 26/26/4 56/57/4 57/56/4
f 20/6/6 27/27/6 57/56/6 50/36/6
f 26/26/3 6/4/3 36/32/3 56/57/3
f 28/30/6 30/29/6 60/58/6 58/60/6
f 30/29/6 29/28/6 59/59/6 60/58/6
f 29/28/4 7/22/4 37/52/4 59/59/4
f 1/20/5 28/30/5 58/60/5 31/50/5
